<?xml version="1.0" encoding="UTF-8"?>
<svg version="1.1" xmlns="http://www.w3.org/2000/svg" width="500" height="500">
<path d="M0 0 C4.0707827 -0.00902172 8.14124175 -0.03032225 12.21191406 -0.06152344 C17.2090217 -0.09981872 22.20583784 -0.11874248 27.20308685 -0.12328148 C29.08658543 -0.12813961 30.97007962 -0.13973146 32.85349274 -0.15831947 C35.45753672 -0.18254101 38.06042989 -0.18178427 40.66455078 -0.17480469 C41.81589256 -0.19401978 41.81589256 -0.19401978 42.99049377 -0.21362305 C46.28530774 -0.18131383 48.44020425 0.0812481 51.25390625 1.84864807 C53.32620798 5.16914793 53.35338327 8.11121011 53.32666016 11.90942383 C53.33699783 12.67078644 53.34733551 13.43214905 53.35798645 14.21658325 C53.38743008 16.72736799 53.3889139 19.23734716 53.39013672 21.74829102 C53.40511738 23.49136901 53.42184429 25.2344328 53.44024658 26.97747803 C53.4839454 31.560879 53.50392473 36.1440885 53.51898193 40.72766113 C53.53854394 45.40652806 53.58051495 50.08518792 53.62060547 54.76391602 C53.69593493 63.94093552 53.7462098 73.11790874 53.78076172 82.29516602 C54.52837265 81.88669434 55.27598358 81.47822266 56.04624939 81.05737305 C57.03105789 80.51967285 58.01586639 79.98197266 59.03051758 79.42797852 C60.00500351 78.89575684 60.97948944 78.36353516 61.98350525 77.81518555 C64.83531541 76.26552173 67.69945009 74.74177046 70.57104492 73.22924805 C76.12865207 70.30000091 81.57479213 67.26954555 86.93310547 63.98657227 C91.5651133 61.23532481 96.29375615 58.65831048 101.01269531 56.05981445 C106.58436109 52.98458235 112.06307323 49.79091398 117.49560547 46.47485352 C119.78076172 45.29516602 119.78076172 45.29516602 122.78076172 45.29516602 C122.78076172 44.63516602 122.78076172 43.97516602 122.78076172 43.29516602 C124.05951172 43.23329102 125.33826172 43.17141602 126.65576172 43.10766602 C127.73470703 43.05545898 127.73470703 43.05545898 128.83544922 43.00219727 C129.79837891 43.1472168 129.79837891 43.1472168 130.78076172 43.29516602 C132.78076172 46.29516602 132.78076172 46.29516602 132.78076172 49.29516602 C133.44076172 49.29516602 134.10076172 49.29516602 134.78076172 49.29516602 C135.08626953 49.88040039 135.39177734 50.46563477 135.70654297 51.06860352 C139.24696886 57.71064195 143.08142723 64.12271681 147.03222656 70.52612305 C152.2324046 78.9779306 157.26669692 87.52726986 162.29785156 96.08032227 C162.95092285 97.18762695 163.60399414 98.29493164 164.27685547 99.43579102 C164.8562085 100.42095703 165.43556152 101.40612305 166.0324707 102.42114258 C167.28618212 104.48212439 168.6189135 106.49581914 169.99975586 108.47387695 C171.78076172 111.29516602 171.78076172 111.29516602 171.78076172 114.29516602 C172.44076172 114.29516602 173.10076172 114.29516602 173.78076172 114.29516602 C174.07466797 114.85719727 174.36857422 115.41922852 174.67138672 115.99829102 C179.1807745 124.44691411 184.12526685 132.62201541 189.07373047 140.81860352 C189.54601074 141.6071875 190.01829102 142.39577148 190.50488281 143.20825195 C191.50405415 144.84256434 192.56325805 146.44020257 193.64404297 148.02172852 C195.18906587 151.11177432 195.44793773 152.89212059 194.78076172 156.29516602 C192.64579141 158.165213 190.89178912 159.41636487 188.46826172 160.79516602 C187.51463745 161.37089355 187.51463745 161.37089355 186.54174805 161.95825195 C184.63579844 163.09785746 182.71390127 164.20243345 180.78076172 165.29516602 C179.77013672 165.86750977 178.75951172 166.43985352 177.71826172 167.02954102 C175.08662054 168.47993416 172.43796772 169.89229328 169.78076172 171.29516602 C165.16016895 173.80703188 160.59476703 176.38770108 156.09326172 179.10766602 C151.8850477 181.64448577 147.65725887 184.14423845 143.40576172 186.60766602 C142.81061768 186.95740479 142.21547363 187.30714355 141.60229492 187.66748047 C138.71030554 189.3337097 136.09181396 190.73245024 132.78076172 191.29516602 C132.78076172 191.95516602 132.78076172 192.61516602 132.78076172 193.29516602 C128.82076172 195.27516602 128.82076172 195.27516602 124.78076172 197.29516602 C128.77724969 200.74844203 132.92592934 203.09986722 137.59326172 205.48266602 C143.78802058 208.70201034 149.90107726 212.0226749 155.9609375 215.48828125 C160.54118152 218.08582453 165.17485783 220.5718272 169.83544922 223.02172852 C171.10330209 223.6907786 172.3711241 224.35988715 173.63891602 225.02905273 C175.54034989 226.03227066 177.44317208 227.03215633 179.35171509 228.02178955 C181.14873265 228.95369965 182.93946012 229.89770769 184.72998047 230.84204102 C185.77500732 231.38699219 186.82003418 231.93194336 187.89672852 232.4934082 C191.03483763 234.45389625 193.36792617 236.4928592 195.78076172 239.29516602 C195.82611706 244.12874963 193.75859276 247.57819672 191.34326172 251.67016602 C190.99344238 252.26740479 190.64362305 252.86464355 190.28320312 253.47998047 C187.0846092 258.89659281 183.72261832 264.21251585 180.36206055 269.52954102 C177.46454479 274.13415077 174.7801232 278.81107065 172.2331543 283.62036133 C170.89876301 286.07784846 169.50115583 288.47151329 168.05029297 290.86157227 C164.55108061 296.66168079 161.1302402 302.50591961 157.71826172 308.35766602 C156.82010742 309.89390625 156.82010742 309.89390625 155.90380859 311.46118164 C152.45806786 317.36762659 149.06984495 323.29998271 145.78076172 329.29516602 C145.12076172 329.29516602 144.46076172 329.29516602 143.78076172 329.29516602 C143.64927734 330.07053711 143.64927734 330.07053711 143.51513672 330.86157227 C142.49322042 334.24802893 140.77992769 337.18127171 139.03076172 340.23266602 C138.52802734 341.14435547 138.52802734 341.14435547 138.01513672 342.07446289 C135.75129816 346.04904308 133.46383687 349.4777238 129.78076172 352.29516602 C125.39033314 351.97415605 122.14857928 350.68843527 118.31591797 348.59204102 C117.27999512 348.03025146 116.24407227 347.46846191 115.17675781 346.88964844 C114.0767041 346.28096924 112.97665039 345.67229004 111.84326172 345.04516602 C110.69680176 344.41908447 109.5503418 343.79300293 108.36914062 343.14794922 C97.10438284 336.98642207 85.9356324 330.6528097 74.78076172 324.29516602 C71.69960146 322.5413026 68.61609808 320.79167023 65.53076172 319.04516602 C64.88091309 318.67415771 64.23106445 318.30314941 63.56152344 317.92089844 C60.98328751 316.46218735 58.60039422 315.23504352 55.78076172 314.29516602 C55.78964417 315.25094543 55.79852661 316.20672485 55.80767822 317.19146729 C55.88874616 326.1964346 55.94871842 335.20132794 55.98801041 344.2065773 C56.00888998 348.83635917 56.03721421 353.46584659 56.08251953 358.09545898 C56.12596435 362.56288295 56.14989604 367.03002361 56.16027069 371.49764252 C56.16766454 373.20252696 56.18210304 374.90739582 56.20368195 376.61215973 C56.23269866 378.99934966 56.23671858 381.38536732 56.23486328 383.77270508 C56.24924438 384.47833084 56.26362549 385.1839566 56.27844238 385.91096497 C56.25154203 389.10745143 56.07122622 390.92318027 54.07804489 393.47576427 C51.31461503 395.66434475 50.03021644 395.79919415 46.54321289 395.80982971 C45.48331146 395.82255417 44.42341003 395.83527863 43.33139038 395.84838867 C41.59509872 395.83859985 41.59509872 395.83859985 39.82373047 395.82861328 C38.60062164 395.83722885 37.37751282 395.84584442 36.11734009 395.85472107 C32.76583844 395.87353514 29.41532515 395.87427585 26.06384659 395.8653996 C23.2655107 395.86028878 20.46726348 395.86758289 17.66893673 395.87487167 C11.06778649 395.89187077 4.46686743 395.88830444 -2.13427734 395.87158203 C-8.94414843 395.85465398 -15.75337884 395.87050385 -22.56317997 395.90280491 C-28.41130599 395.92949338 -34.25923248 395.93677912 -40.10741329 395.92828983 C-43.5997178 395.92335909 -47.09163667 395.92558357 -50.58389282 395.94607735 C-54.47691993 395.96782971 -58.3691733 395.94904415 -62.26220703 395.92626953 C-63.4197348 395.93796173 -64.57726257 395.94965393 -65.76986694 395.96170044 C-73.4678804 395.86979532 -73.4678804 395.86979532 -76.93817139 393.21575928 C-78.53322857 389.5793268 -78.70042405 386.90917829 -78.67333984 382.93457031 C-78.67392395 382.21207596 -78.67450806 381.4895816 -78.67510986 380.74519348 C-78.67233462 378.36942629 -78.64127153 375.99493134 -78.60986328 373.61938477 C-78.60239884 371.96743963 -78.59670687 370.31548561 -78.5927124 368.66352844 C-78.5774719 364.32485316 -78.53820419 359.98671723 -78.49389648 355.64825439 C-78.45290932 351.21748144 -78.43469406 346.78662096 -78.41455078 342.35571289 C-78.37170799 333.66861698 -78.30347639 324.98195868 -78.21923828 316.29516602 C-79.97468922 317.24852153 -81.72963773 318.20280225 -83.484375 319.1574707 C-84.461716 319.68878601 -85.43905701 320.22010132 -86.4460144 320.76751709 C-89.79992866 322.6150432 -93.07215759 324.55610537 -96.34423828 326.54516602 C-97.63419646 327.32578591 -98.9245775 328.10570735 -100.21533203 328.88500977 C-100.87259277 329.28187988 -101.52985352 329.67875 -102.20703125 330.08764648 C-106.286498 332.53572251 -110.39610153 334.93288303 -114.50390625 337.33300781 C-118.5495779 339.70332464 -122.56848354 342.11146886 -126.56689453 344.56079102 C-127.91521362 345.38293091 -127.91521362 345.38293091 -129.29077148 346.22167969 C-131.04179101 347.29118856 -132.78919991 348.36663734 -134.5324707 349.44873047 C-135.73093628 350.17902466 -135.73093628 350.17902466 -136.95361328 350.92407227 C-137.65711914 351.35792236 -138.360625 351.79177246 -139.08544922 352.23876953 C-141.57696547 353.47226963 -143.43353125 354.11538266 -146.21923828 354.29516602 C-150.43977398 352.47981812 -152.26065582 350.18366725 -154.48876953 346.24438477 C-155.06336914 345.24286377 -155.63796875 344.24134277 -156.22998047 343.20947266 C-156.82456055 342.14462646 -157.41914063 341.07978027 -158.03173828 339.98266602 C-158.65338867 338.89268311 -159.27503906 337.8027002 -159.91552734 336.6796875 C-161.69410977 333.55741624 -163.45782928 330.42714663 -165.21923828 327.29516602 C-166.63128361 324.81332332 -168.05036397 322.33561828 -169.46923828 319.85766602 C-170.37802734 318.26051758 -170.37802734 318.26051758 -171.30517578 316.63110352 C-174.79169448 310.5545995 -178.362109 304.52749257 -181.92382812 298.49487305 C-183.23186678 296.27372184 -184.53312383 294.04872678 -185.83251953 291.82250977 C-189.45355564 285.62604417 -193.0726731 279.44913719 -196.96923828 273.42016602 C-199.75927566 269.0982156 -202.25799541 264.68089298 -204.65673828 260.13110352 C-205.77701626 258.09779899 -206.97445678 256.1062869 -208.21923828 254.14672852 C-208.87923828 253.10258789 -209.53923828 252.05844727 -210.21923828 250.98266602 C-210.83798828 250.0377832 -211.45673828 249.09290039 -212.09423828 248.11938477 C-213.21923828 245.29516602 -213.21923828 245.29516602 -212.63891602 242.35253906 C-210.87041403 238.54394915 -209.2673669 237.59265 -205.62939453 235.55297852 C-204.77735191 235.06445152 -204.77735191 235.06445152 -203.90809631 234.5660553 C-202.04166932 233.50054524 -200.16214305 232.46077462 -198.28173828 231.42016602 C-196.97902059 230.68166434 -195.67743783 229.94115734 -194.37695312 229.19873047 C-191.68210367 227.66153372 -188.9830149 226.1321826 -186.28125 224.60717773 C-180.50001405 221.33127646 -174.79498827 217.92780079 -169.08883667 214.52337646 C-164.47226164 211.76943728 -159.847355 209.02965026 -155.21923828 206.29516602 C-154.48157227 205.8551123 -153.74390625 205.41505859 -152.98388672 204.96166992 C-148.44907964 202.29516602 -148.44907964 202.29516602 -146.21923828 202.29516602 C-147.52955164 198.36422595 -149.02276407 197.97956997 -152.59423828 195.98266602 C-153.68736328 195.36649414 -154.78048828 194.75032227 -155.90673828 194.11547852 C-159.70467388 192.02840542 -163.50513988 189.94674794 -167.31689453 187.88500977 C-172.38496645 185.10882502 -177.38830794 182.21869892 -182.39892578 179.34057617 C-190.64290415 174.60603817 -198.88989978 169.87850572 -207.21923828 165.29516602 C-207.21923828 164.63516602 -207.21923828 163.97516602 -207.21923828 163.29516602 C-208.39486328 163.14047852 -208.39486328 163.14047852 -209.59423828 162.98266602 C-212.21923828 162.29516602 -212.21923828 162.29516602 -214.21923828 159.29516602 C-213.99271113 153.51872379 -211.97802074 149.23531134 -209.21923828 144.29516602 C-208.55923828 144.29516602 -207.89923828 144.29516602 -207.21923828 144.29516602 C-207.09266846 143.70920654 -206.96609863 143.12324707 -206.83569336 142.51953125 C-206.23105133 140.33779125 -205.46267622 138.67214756 -204.35595703 136.70532227 C-203.96996338 136.01446533 -203.58396973 135.3236084 -203.1862793 134.61181641 C-202.76403076 133.86794678 -202.34178223 133.12407715 -201.90673828 132.35766602 C-201.24339478 131.17708618 -201.24339478 131.17708618 -200.56665039 129.97265625 C-199.12362383 127.40998379 -197.67252466 124.85203277 -196.21923828 122.29516602 C-195.49172363 121.01319336 -195.49172363 121.01319336 -194.74951172 119.70532227 C-191.2576213 113.5581161 -187.74246292 107.42445477 -184.21923828 101.29516602 C-183.73245605 100.44680176 -183.24567383 99.5984375 -182.74414062 98.72436523 C-177.62064328 89.80006407 -172.42094261 80.94938479 -166.98876953 72.20922852 C-163.6231641 66.66675247 -160.61210516 60.93428221 -157.58642578 55.20141602 C-157.05275391 54.20110352 -156.51908203 53.20079102 -155.96923828 52.17016602 C-155.24994141 50.80504883 -155.24994141 50.80504883 -154.51611328 49.41235352 C-153.21923828 47.29516602 -153.21923828 47.29516602 -151.21923828 46.29516602 C-146.16095569 45.8058869 -143.45112011 46.92702988 -139.15673828 49.54516602 C-137.91377983 50.28824267 -136.67025382 51.03037049 -135.42626953 51.77172852 C-134.75289551 52.17810547 -134.07952148 52.58448242 -133.38574219 53.00317383 C-129.40963757 55.37431938 -125.37082949 57.63621955 -121.34423828 59.92016602 C-112.25964342 65.09759746 -103.22584041 70.36007799 -94.21386719 75.6628418 C-93.25786621 76.22342285 -92.30186523 76.78400391 -91.31689453 77.36157227 C-90.47650635 77.8560083 -89.63611816 78.35044434 -88.77026367 78.85986328 C-85.96534771 80.43801439 -83.10152538 81.86415604 -80.21923828 83.29516602 C-80.23034134 82.35413528 -80.2414444 81.41310455 -80.25288391 80.44355774 C-80.35428135 71.57138809 -80.42921373 62.69933613 -80.47829914 53.82671833 C-80.50438316 49.2652552 -80.5397589 44.70426014 -80.59643555 40.14306641 C-80.65079871 35.74045913 -80.68066781 31.33830179 -80.6936245 26.93538475 C-80.70285673 25.25641993 -80.7208856 23.57747949 -80.74788857 21.89870644 C-80.78423822 19.54505002 -80.78918148 17.19324782 -80.78686523 14.83935547 C-80.8138298 13.80033585 -80.8138298 13.80033585 -80.84133911 12.74032593 C-80.80082658 8.93063422 -80.29542589 7.38955821 -77.8712616 4.38615417 C-74.07801206 1.39536604 -71.24649397 1.14766604 -66.55224609 0.98974609 C-65.35750671 0.94935715 -64.16276733 0.9089682 -62.93182373 0.86735535 C-61.59535515 0.82833954 -60.25886736 0.7899776 -58.92236328 0.75219727 C-57.88760738 0.72134002 -57.88760738 0.72134002 -56.83194733 0.68985939 C-37.89223691 0.13466708 -18.94671592 0.03751564 0 0 Z M-55.21923828 29.29516602 C-55.18443359 35.97379883 -55.14962891 42.65243164 -55.11376953 49.53344727 C-55.09844554 53.75806535 -55.08400401 57.9826493 -55.07275391 62.20727539 C-55.05480269 68.91657607 -55.03353964 75.62575422 -54.99291992 82.33496094 C-54.96038472 87.74252352 -54.94239755 93.14995476 -54.93460655 98.55760765 C-54.92905254 100.62334448 -54.91820727 102.68907392 -54.90204811 104.75475502 C-54.88035153 107.64248967 -54.8772681 110.52967777 -54.87866211 113.41748047 C-54.86787628 114.27631332 -54.85709045 115.13514618 -54.84597778 116.02000427 C-54.87660815 121.86266193 -54.87660815 121.86266193 -56.60311413 124.04204082 C-58.21923828 125.29516602 -58.21923828 125.29516602 -60.43798828 125.23657227 C-64.11782994 123.99100788 -67.37487526 122.1757349 -70.71923828 120.23266602 C-71.41686279 119.8350708 -72.1144873 119.43747559 -72.83325195 119.02783203 C-78.53866783 115.75323333 -84.11406819 112.28883259 -89.64501953 108.72875977 C-92.16498517 107.05189443 -92.16498517 107.05189443 -95.21923828 107.29516602 C-95.21923828 106.63516602 -95.21923828 105.97516602 -95.21923828 105.29516602 C-96.00621094 104.9277832 -96.00621094 104.9277832 -96.80908203 104.55297852 C-103.5846917 101.28354956 -110.00612836 97.52550321 -116.41625977 93.59838867 C-117.12339111 93.17219238 -117.83052246 92.74599609 -118.55908203 92.30688477 C-119.19193115 91.91976318 -119.82478027 91.5326416 -120.47680664 91.13378906 C-122.34748174 90.07832654 -122.34748174 90.07832654 -125.21923828 90.29516602 C-125.21923828 89.63516602 -125.21923828 88.97516602 -125.21923828 88.29516602 C-127.13335385 87.31102169 -129.05063498 86.33303253 -130.96923828 85.35766602 C-132.03658203 84.81239258 -133.10392578 84.26711914 -134.20361328 83.70532227 C-136.63061241 82.57041723 -138.6423621 81.88104069 -141.21923828 81.29516602 C-143.38700761 85.0028558 -145.55343954 88.7113248 -147.71923828 92.42016602 C-148.36199707 93.52078369 -149.00475586 94.62140137 -149.66699219 95.75537109 C-153.0069596 101.48084892 -156.32683308 107.215499 -159.59423828 112.98266602 C-162.08916645 117.37544552 -164.67758307 121.69195763 -167.34423828 125.98266602 C-174.28908531 137.1575902 -174.28908531 137.1575902 -179.21923828 149.29516602 C-175.74126772 151.35968789 -172.26164296 153.42140619 -168.78173828 155.48266602 C-167.80785156 156.06081055 -166.83396484 156.63895508 -165.83056641 157.23461914 C-160.00855028 160.68109692 -154.15235327 164.04398534 -148.21923828 167.29516602 C-137.82177709 173.01996222 -127.50514462 178.84901645 -117.28955078 184.89282227 C-113.32185474 187.23909494 -109.33999793 189.55952679 -105.34423828 191.85766602 C-104.23306641 192.49833008 -103.12189453 193.13899414 -101.97705078 193.79907227 C-99.25205142 195.38112507 -99.25205142 195.38112507 -96.21923828 196.29516602 C-96.02140229 199.2817286 -95.98894811 200.63149638 -97.21923828 203.29516602 C-100.6584788 206.14828022 -104.53529434 208.13876907 -108.46923828 210.23266602 C-110.67687696 211.45943814 -112.88391373 212.68729409 -115.09033203 213.91625977 C-116.15364746 214.49875488 -117.21696289 215.08125 -118.3125 215.68139648 C-121.79490294 217.61476482 -125.16294271 219.67073722 -128.53173828 221.79516602 C-133.07061424 224.62521813 -137.69140514 227.21051108 -142.40673828 229.73266602 C-146.69156479 232.11312518 -150.82100997 234.7357903 -154.98095703 237.32641602 C-159.63506051 240.15593128 -164.40579321 242.74857383 -169.21923828 245.29516602 C-169.21923828 245.95516602 -169.21923828 246.61516602 -169.21923828 247.29516602 C-169.79673828 247.37766602 -170.37423828 247.46016602 -170.96923828 247.54516602 C-173.83158187 248.49928054 -175.1628528 250.13509723 -177.21923828 252.29516602 C-168.78168793 267.11527595 -160.25015638 281.87938281 -151.57836914 296.5637207 C-149.08669229 300.79195971 -146.66792447 305.05149698 -144.31298828 309.35766602 C-142.40140321 312.74390242 -140.31569739 316.02112136 -138.21923828 319.29516602 C-132.82017091 316.40060898 -127.45526915 313.47719121 -122.21923828 310.29516602 C-118.86899763 308.25977649 -115.48645586 306.33504782 -112.03173828 304.48266602 C-102.69193295 299.43732689 -93.67620631 293.82451647 -84.65673828 288.23266602 C-78.94835324 284.70461593 -73.15365532 281.359005 -67.31298828 278.05688477 C-65.35036222 276.93927826 -63.41326099 275.77454195 -61.51611328 274.54907227 C-58.40702474 272.85176372 -56.56340502 273.38312054 -53.21923828 274.29516602 C-51.10816624 276.40623806 -52.03311334 281.11778975 -52.01391602 284.03759766 C-52.00401642 284.95457932 -51.99411682 285.87156097 -51.98391724 286.81632996 C-51.95220179 289.86263401 -51.92750529 292.90895369 -51.90283203 295.95532227 C-51.88227117 298.06140052 -51.86127494 300.16747457 -51.83985901 302.27354431 C-51.78454871 307.8285482 -51.73517908 313.38358987 -51.68701172 318.93865967 C-51.63686193 324.60245138 -51.5811419 330.26618792 -51.52587891 335.92993164 C-51.41818783 347.05162935 -51.31676734 358.17337488 -51.21923828 369.29516602 C-40.95346364 369.31830296 -30.68769517 369.33608803 -20.4218998 369.34697819 C-15.65544338 369.35220404 -10.88900476 369.35929633 -6.12255859 369.37060547 C-1.52549438 369.38144487 3.07155269 369.3874451 7.66862869 369.39004326 C9.42536311 369.3918956 11.18209655 369.39551258 12.9388237 369.40089607 C15.39315596 369.40812045 17.84741669 369.40915636 20.30175781 369.40869141 C21.0332756 369.41228668 21.7647934 369.41588196 22.51847839 369.41958618 C26.27476337 369.47103499 26.27476337 369.47103499 29.78076172 368.29516602 C29.792892 366.55416122 29.792892 366.55416122 29.80526733 364.77798462 C29.88263 353.85912867 29.97034395 342.94039884 30.0682888 332.02170753 C30.11831233 326.40780755 30.16464169 320.79392694 30.20263672 315.17993164 C30.23941318 309.76580485 30.28575197 304.35183785 30.33882523 298.93784714 C30.35740992 296.86854215 30.37250267 294.79920286 30.38410568 292.72984695 C30.40089863 289.83950558 30.42991631 286.94953347 30.46191406 284.05932617 C30.46515434 282.76568398 30.46515434 282.76568398 30.46846008 281.44590759 C30.5526574 275.52327034 30.5526574 275.52327034 32.78076172 273.29516602 C38.52893807 273.29516602 42.46744486 275.54958447 47.37841797 278.36547852 C51.52344538 280.71638958 55.7418067 282.90769762 59.96826172 285.10766602 C71.82215258 291.31712547 83.43521691 297.90281046 94.97607422 304.67407227 C98.67075045 306.80957454 102.41053274 308.85308877 106.17138672 310.86938477 C107.9083863 311.81849382 109.62780061 312.80053124 111.32763672 313.81469727 C112.11654297 314.28262695 112.90544922 314.75055664 113.71826172 315.23266602 C114.75273438 315.86495117 114.75273438 315.86495117 115.80810547 316.51000977 C118.26394755 317.48748354 119.36396034 317.30767859 121.78076172 316.29516602 C123.92273666 313.38820002 124.78076172 311.93995514 124.78076172 308.29516602 C125.44076172 308.29516602 126.10076172 308.29516602 126.78076172 308.29516602 C127.17908203 307.55911133 127.57740234 306.82305664 127.98779297 306.06469727 C128.51759766 305.08887695 129.04740234 304.11305664 129.59326172 303.10766602 C130.11533203 302.14473633 130.63740234 301.18180664 131.17529297 300.18969727 C132.22247049 298.30172028 133.32261859 296.44189714 134.47998047 294.61938477 C136.02495175 292.30276067 136.02495175 292.30276067 135.78076172 289.29516602 C136.44076172 289.29516602 137.10076172 289.29516602 137.78076172 289.29516602 C138.12107422 288.66352539 138.46138672 288.03188477 138.81201172 287.38110352 C141.70172984 282.04742166 144.64477199 276.74892276 147.65576172 271.48266602 C147.98632568 270.90266846 148.31688965 270.3226709 148.6574707 269.72509766 C150.44429811 266.59761395 152.25688994 263.48844442 154.10498047 260.39672852 C154.47961426 259.76226807 154.85424805 259.12780762 155.24023438 258.47412109 C155.96199308 257.25281847 156.69185143 256.0362575 157.43066406 254.82519531 C158.29222439 253.35839423 159.04606581 251.8294455 159.78076172 250.29516602 C158.52890343 246.53959114 157.59691741 246.37899837 154.15576172 244.60766602 C153.14900391 244.08043945 152.14224609 243.55321289 151.10498047 243.01000977 C150.00798828 242.44411133 148.91099609 241.87821289 147.78076172 241.29516602 C145.50817694 240.09012996 143.23745448 238.88157747 140.96826172 237.67016602 C140.35684326 237.34459717 139.7454248 237.01902832 139.11547852 236.68359375 C133.21818796 233.53989046 127.34024796 230.36085067 121.46826172 227.17016602 C120.56164795 226.6795166 119.65503418 226.18886719 118.72094727 225.68334961 C114.24878998 223.24814155 109.83533328 220.75072416 105.47998047 218.11157227 C102.02357248 216.01739766 98.55674849 214.09849884 94.90576172 212.35766602 C89.48885468 209.71236297 84.33258204 206.73997046 79.17919922 203.61547852 C76.94505546 202.1344169 76.94505546 202.1344169 74.78076172 202.29516602 C74.78076172 199.65516602 74.78076172 197.01516602 74.78076172 194.29516602 C75.41626953 194.0721582 76.05177734 193.84915039 76.70654297 193.61938477 C80.98856378 191.77490566 84.93701361 189.44236277 88.96826172 187.10766602 C89.87519775 186.58591797 90.78213379 186.06416992 91.71655273 185.52661133 C94.7399022 183.78615017 97.76040388 182.04081301 100.78076172 180.29516602 C103.00460194 179.01240915 105.22856288 177.72986154 107.45263672 176.44750977 C110.83419123 174.49741983 114.21543378 172.54679933 117.59570312 170.59448242 C123.16967143 167.37524323 128.74861714 164.16582586 134.34326172 160.98266602 C135.36806641 160.39485352 136.39287109 159.80704102 137.44873047 159.20141602 C139.29529118 158.14500145 141.14346033 157.09133275 142.99804688 156.04907227 C145.38986812 154.70376421 147.77311511 153.34414326 150.15576172 151.98266602 C150.9131665 151.56138428 151.67057129 151.14010254 152.45092773 150.70605469 C154.27860968 149.65314865 156.03784418 148.48313524 157.78076172 147.29516602 C157.78076172 140.05856349 151.5292084 132.77914941 147.90576172 126.79516602 C143.38167613 119.29499787 138.87554249 111.78608806 134.4362793 104.23535156 C132.34229617 100.6745612 130.23768992 97.1201569 128.12890625 93.56811523 C127.2859535 92.14691094 126.4453856 90.7242863 125.60839844 89.29956055 C124.6575303 87.68648856 123.68890419 86.08391698 122.71826172 84.48266602 C122.23228516 83.6718457 121.74630859 82.86102539 121.24560547 82.02563477 C119.45123254 79.90588221 118.49739161 79.66980888 115.78076172 79.29516602 C113.1865583 80.50877612 110.84727852 81.76257114 108.40576172 83.23266602 C107.69822754 83.64508545 106.99069336 84.05750488 106.26171875 84.48242188 C104.80109763 85.33420595 103.34325466 86.19077122 101.88818359 87.05200195 C98.83035002 88.85581203 95.7429437 90.60453779 92.65576172 92.35766602 C89.06655782 94.40981704 85.48087153 96.46749666 81.90185547 98.53735352 C81.2645752 98.90465576 80.62729492 99.27195801 79.97070312 99.65039062 C78.19403136 100.67457605 76.41898732 101.70158359 74.64404297 102.72875977 C71.78076172 104.29516602 71.78076172 104.29516602 68.78076172 105.29516602 C68.78076172 105.95516602 68.78076172 106.61516602 68.78076172 107.29516602 C68.19302979 107.42189697 67.60529785 107.54862793 66.99975586 107.67919922 C63.44333664 108.66641956 60.39282928 110.64524898 57.21826172 112.48266602 C55.78497746 113.30091671 54.35138224 114.11862294 52.91748047 114.93579102 C52.2154248 115.33733398 51.51336914 115.73887695 50.79003906 116.15258789 C46.48962747 118.59802243 42.1459855 120.96755544 37.78076172 123.29516602 C37.07822266 123.68446289 36.37568359 124.07375977 35.65185547 124.47485352 C33.0656667 125.60867323 31.43415805 125.08401357 28.78076172 124.29516602 C26.66968968 122.18409397 27.59463678 117.47254228 27.57543945 114.55273438 C27.56553986 113.63575272 27.55564026 112.71877106 27.54544067 111.77400208 C27.51372523 108.72769802 27.48902872 105.68137834 27.46435547 102.63500977 C27.4437946 100.52893151 27.42279837 98.42285746 27.40138245 96.31678772 C27.34607215 90.76178384 27.29670251 85.20674217 27.24853516 79.65167236 C27.18957487 72.99284462 27.12329782 66.33408624 27.05823517 59.67531586 C26.96011302 49.54864145 26.87133405 39.42192345 26.78076172 29.29516602 C-0.27923828 29.29516602 -27.33923828 29.29516602 -55.21923828 29.29516602 Z " fill="#C01926" transform="translate(259.21923828125,51.704833984375)"/>
<path d="M0 0 C11.53500691 -0.09262957 23.06992551 -0.16372932 34.60522842 -0.20724869 C39.96139908 -0.22813454 45.31731551 -0.25647064 50.67333984 -0.30175781 C55.84101616 -0.34517961 61.00844777 -0.36912959 66.17629242 -0.37950897 C68.14911502 -0.38690691 70.12192405 -0.40135319 72.09464264 -0.42292023 C74.85538303 -0.45190543 77.6151088 -0.45595805 80.37597656 -0.45410156 C81.19381119 -0.46848267 82.01164581 -0.48286377 82.85426331 -0.49768066 C86.26436428 -0.47282381 88.57973938 -0.26070106 91.50587463 1.55447388 C93.5326302 4.87178833 93.56503851 7.80745254 93.5300293 11.58251953 C93.53876068 12.34066956 93.54749207 13.09881958 93.55648804 13.87994385 C93.5808484 16.3811414 93.57745459 18.88151149 93.57421875 21.3828125 C93.58666242 23.12109792 93.60099624 24.85937075 93.61714172 26.59762573 C93.65518097 31.1704162 93.67035817 35.74299 93.67993164 40.31591797 C93.69967169 47.64265975 93.75643782 54.96923622 93.80869484 62.29580307 C93.8240725 64.85844108 93.83123778 67.42099702 93.83683777 69.9836731 C93.84385189 71.54787232 93.85095265 73.11207116 93.8581543 74.67626953 C93.85762558 75.3921524 93.85709686 76.10803528 93.85655212 76.84561157 C93.82788027 80.54694129 93.82788027 80.54694129 95 84 C93.35 84 91.7 84 90 84 C90 83.34 90 82.68 90 82 C90.66 82 91.32 82 92 82 C91.67 56.92 91.34 31.84 91 6 C90.01 5.505 90.01 5.505 89 5 C89 4.01 89 3.02 89 2 C59.63 1.67 30.26 1.34 0 1 C0 0.67 0 0.34 0 0 Z " fill="#CB666D" transform="translate(219,52)"/>
<path d="M0 0 C21.45 0 42.9 0 65 0 C65 0.66 65 1.32 65 2 C61.68579863 3.00255523 58.72320014 3.10106776 55.26928711 3.0534668 C54.1180687 3.0398259 52.96685028 3.026185 51.78074646 3.01213074 C50.54212357 2.99136978 49.30350067 2.97060883 48.02734375 2.94921875 C46.75274796 2.9303511 45.47815216 2.91148346 44.16493225 2.89204407 C41.47078748 2.85017376 38.77679711 2.80591429 36.08276367 2.75805664 C32.63058246 2.69736522 29.17836604 2.65049669 25.72592831 2.60722637 C22.43042029 2.56337807 19.13515998 2.50546153 15.83984375 2.44921875 C14.59919662 2.43453049 13.3585495 2.41984222 12.08030701 2.40470886 C10.93224075 2.38161148 9.7841745 2.3585141 8.60131836 2.3347168 C7.08386269 2.31020699 7.08386269 2.31020699 5.53575134 2.28520203 C3 2 3 2 0 0 Z " fill="#AA1C28" transform="translate(204,53)"/>
<path d="M0 0 C1.093125 0.226875 2.18625 0.45375 3.3125 0.6875 C3.3125 1.0175 3.3125 1.3475 3.3125 1.6875 C2.36375 1.81125 1.415 1.935 0.4375 2.0625 C-2.77417191 2.40437177 -2.77417191 2.40437177 -4.6875 4.6875 C-4.90531495 7.57781484 -4.99894084 10.37510816 -5.00634766 13.26806641 C-5.01639328 14.15593338 -5.0264389 15.04380035 -5.03678894 15.95857239 C-5.06775367 18.90206232 -5.08469286 21.84546077 -5.1015625 24.7890625 C-5.12026347 26.82645462 -5.13983606 28.8638389 -5.1602478 30.9012146 C-5.2116882 36.27042027 -5.25125006 41.63965108 -5.28839111 47.00897217 C-5.32835628 52.485212 -5.37948268 57.96134616 -5.4296875 63.4375 C-5.52658771 74.1874259 -5.61094722 84.9374113 -5.6875 95.6875 C-6.0175 95.6875 -6.3475 95.6875 -6.6875 95.6875 C-6.75693244 83.61365506 -6.81027691 71.53985742 -6.84293652 59.46585369 C-6.85860947 53.85973255 -6.87987755 48.25374774 -6.91381836 42.64770508 C-6.94635356 37.24014249 -6.96434073 31.83271125 -6.97213173 26.42505836 C-6.97768574 24.35932153 -6.98853101 22.29359209 -7.00469017 20.227911 C-7.02638675 17.34017635 -7.02947018 14.45298825 -7.02807617 11.56518555 C-7.038862 10.70635269 -7.04964783 9.84751984 -7.0607605 8.96266174 C-7.03031461 3.15519152 -7.03031461 3.15519152 -5.39542103 0.92475605 C-3.6875 -0.3125 -3.6875 -0.3125 0 0 Z " fill="#9E343F" transform="translate(295.6875,324.3125)"/>
<path d="M0 0 C0.33 0.66 0.66 1.32 1 2 C0.27087654 2.51328606 0.27087654 2.51328606 -0.47297668 3.03694153 C-2.73524434 5.9451903 -2.43953021 8.87186649 -2.43237305 12.40893555 C-2.4425647 13.16039856 -2.45275635 13.91186157 -2.46325684 14.68609619 C-2.49344888 17.16971227 -2.502662 19.65294307 -2.51171875 22.13671875 C-2.52856088 23.85880318 -2.54671049 25.58087529 -2.56611633 27.30293274 C-2.61367326 31.83533882 -2.64344568 36.36769494 -2.66955566 40.90026855 C-2.69933255 45.52540967 -2.7458727 50.15037848 -2.79101562 54.77539062 C-2.87711343 63.85017039 -2.94442983 72.92498556 -3 82 C-4.65 82 -6.3 82 -8 82 C-8.33 81.01 -8.66 80.02 -9 79 C-7.35 79.33 -5.7 79.66 -4 80 C-4.01332367 78.58512299 -4.01332367 78.58512299 -4.0269165 77.1416626 C-4.10798691 68.25442539 -4.16795787 59.36726316 -4.20724869 50.47974014 C-4.22812765 45.91049036 -4.25645071 41.34153898 -4.30175781 36.77246094 C-4.34520488 32.36339127 -4.36913478 27.9546087 -4.37950897 23.54534149 C-4.38690243 21.86278513 -4.40134017 20.18024457 -4.42292023 18.49781036 C-4.45194003 16.14174899 -4.45595675 13.78687527 -4.45410156 11.43066406 C-4.47567322 10.38625153 -4.47567322 10.38625153 -4.49768066 9.32073975 C-4.46799868 5.83914071 -4.2185 4.2654703 -1.97161865 1.5355835 C-1.3209845 1.02884094 -0.67035034 0.52209839 0 0 Z " fill="#A53A40" transform="translate(183,55)"/>
<path d="M0 0 C1.5625 1.8125 1.5625 1.8125 3 4 C1.86280581 7.41158256 0.95657056 8.11854601 -2 10 C-2.66 10 -3.32 10 -4 10 C-3.690625 11.051875 -3.690625 11.051875 -3.375 12.125 C-2.92149643 15.60186072 -3.72459723 17.77398123 -5 21 C-3.35 21.33 -1.7 21.66 0 22 C0.33 22.99 0.66 23.98 1 25 C0.34 25 -0.32 25 -1 25 C-1 24.34 -1 23.68 -1 23 C-1.78375 22.896875 -2.5675 22.79375 -3.375 22.6875 C-6 22 -6 22 -8 19 C-7.77347285 13.22355777 -5.75878246 8.94014533 -3 4 C-2.34 4 -1.68 4 -1 4 C-0.67 2.68 -0.34 1.36 0 0 Z " fill="#C43E4D" transform="translate(53,192)"/>
<path d="M0 0 C1.9630836 0.92751198 3.92034027 1.86736453 5.875 2.8125 C7.51082031 3.59560547 7.51082031 3.59560547 9.1796875 4.39453125 C12 6 12 6 14 9 C13.6999208 13.6097273 12.21481097 16.90181916 9.9375 20.875 C9.38964844 21.84179688 8.84179688 22.80859375 8.27734375 23.8046875 C7.85582031 24.52914063 7.43429687 25.25359375 7 26 C6.67 26 6.34 26 6 26 C6 24.35 6 22.7 6 21 C6.66 21 7.32 21 8 21 C8.2165625 19.576875 8.2165625 19.576875 8.4375 18.125 C9 15 9 15 10 13 C10.66 13 11.32 13 12 13 C11.67 11.02 11.34 9.04 11 7 C9.68 7 8.36 7 7 7 C6.67 6.34 6.34 5.68 6 5 C5.175 4.690625 4.35 4.38125 3.5 4.0625 C2.675 3.711875 1.85 3.36125 1 3 C0.67 2.01 0.34 1.02 0 0 Z " fill="#C9636D" transform="translate(441,282)"/>
<path d="M0 0 C0.33 0.66 0.66 1.32 1 2 C0.67 2.66 0.34 3.32 0 4 C-0.99 4 -1.98 4 -3 4 C-3 4.66 -3 5.32 -3 6 C-3.99 6 -4.98 6 -6 6 C-6 6.66 -6 7.32 -6 8 C-6.99 8 -7.98 8 -9 8 C-9 8.66 -9 9.32 -9 10 C-11.90600261 11.25664978 -13.79604584 12 -17 12 C-17.33 13.32 -17.66 14.64 -18 16 C-18.66 15.34 -19.32 14.68 -20 14 C-18.79242564 10.37727692 -17.98145951 10.12201363 -14.74609375 8.30078125 C-13.89208984 7.81416016 -13.03808594 7.32753906 -12.15820312 6.82617188 C-11.26037109 6.32666016 -10.36253906 5.82714844 -9.4375 5.3125 C-8.08495117 4.54583008 -8.08495117 4.54583008 -6.70507812 3.76367188 C-4.47453031 2.50087496 -2.23952642 1.24678254 0 0 Z " fill="#C34957" transform="translate(353,235)"/>
<path d="M0 0 C0 3 0 3 -2 5.1875 C-2.66 5.785625 -3.32 6.38375 -4 7 C-3.649375 7.886875 -3.29875 8.77375 -2.9375 9.6875 C-1.98244398 13.06203126 -2.02848868 14.69686152 -3 18 C-6.46049455 15.00090472 -8.06056062 12.50930905 -9 8 C-8.44959814 5.32661951 -7.55063858 4.36709239 -5.30078125 2.8671875 C-3.56316133 1.85915647 -1.78335933 0.92470484 0 0 Z " fill="#C23B49" transform="translate(55,287)"/>
<path d="M0 0 C0.66 1.32 1.32 2.64 2 4 C1.01 5.485 1.01 5.485 0 7 C-0.12375 7.639375 -0.2475 8.27875 -0.375 8.9375 C-1.2215824 11.73122192 -2.89802524 13.02939867 -5 15 C-5.33 15.66 -5.66 16.32 -6 17 C-6.66 17 -7.32 17 -8 17 C-8 17.66 -8 18.32 -8 19 C-8.66 18.67 -9.32 18.34 -10 18 C-9.01 15.69 -8.02 13.38 -7 11 C-6.34 11 -5.68 11 -5 11 C-4.9175 10.484375 -4.835 9.96875 -4.75 9.4375 C-3.67859775 5.95544268 -1.86476395 3.12799115 0 0 Z " fill="#BE3544" transform="translate(391,349)"/>
<path d="M0 0 C-2.07937949 1.31914392 -4.16308019 2.63038213 -6.25 3.9375 C-6.83652344 4.31068359 -7.42304688 4.68386719 -8.02734375 5.06835938 C-10.95906265 6.8965661 -13.55480229 8.46275382 -17 9 C-18 7 -18 7 -17.5 4.9375 C-16 3 -16 3 -12.375 2.25 C-10.704375 2.12625 -10.704375 2.12625 -9 2 C-9 1.34 -9 0.68 -9 0 C-3.375 -1.125 -3.375 -1.125 0 0 Z " fill="#C23745" transform="translate(371,134)"/>
<path d="M0 0 C1.32 0.33 2.64 0.66 4 1 C1.11756577 2.71120766 -1.78273865 4.38951872 -4.6875 6.0625 C-5.50412109 6.54783203 -6.32074219 7.03316406 -7.16210938 7.53320312 C-7.95810547 7.98759766 -8.75410156 8.44199219 -9.57421875 8.91015625 C-10.30213623 9.33433838 -11.03005371 9.75852051 -11.7800293 10.19555664 C-14.54837109 11.1987114 -16.20769689 10.79197529 -19 10 C-19 9.67 -19 9.34 -19 9 C-17.02 9 -15.04 9 -13 9 C-13 8.34 -13 7.68 -13 7 C-13.66 7 -14.32 7 -15 7 C-15 6.34 -15 5.68 -15 5 C-12.69 5.33 -10.38 5.66 -8 6 C-8 5.01 -8 4.02 -8 3 C-5.36 2.67 -2.72 2.34 0 2 C0 1.34 0 0.68 0 0 Z " fill="#C75D66" transform="translate(307,167)"/>
<path d="M0 0 C0 0.66 0 1.32 0 2 C-0.99 2.33 -1.98 2.66 -3 3 C-3.33 3.99 -3.66 4.98 -4 6 C-5.11375 6.0825 -6.2275 6.165 -7.375 6.25 C-11.05753944 6.57873787 -11.05753944 6.57873787 -12.4375 9.0625 C-12.7159375 10.0215625 -12.7159375 10.0215625 -13 11 C-13.99 11 -14.98 11 -16 11 C-16.33 11.66 -16.66 12.32 -17 13 C-18.32 12.34 -19.64 11.68 -21 11 C-17.87907566 9.15966024 -14.75261783 7.32893744 -11.625 5.5 C-10.73554688 4.97535156 -9.84609375 4.45070313 -8.9296875 3.91015625 C-7.65351563 3.16572266 -7.65351563 3.16572266 -6.3515625 2.40625 C-5.56604004 1.94541016 -4.78051758 1.48457031 -3.97119141 1.00976562 C-2 0 -2 0 0 0 Z " fill="#C6565F" transform="translate(372,102)"/>
<path d="M0 0 C3.09592835 3.5087188 4.74194623 6.49197399 6 11 C3.6739143 11.38063221 1.33944736 11.71269945 -1 12 C-2 11 -2 11 -2.1875 8.5625 C-2 6 -2 6 0 4 C0 2.68 0 1.36 0 0 Z " fill="#C33443" transform="translate(115,361)"/>
<path d="M0 0 C4.53881146 -0.56735143 7.37043455 0.99939799 11.23046875 3.125 C12.96979106 4.14775054 12.96979106 4.14775054 15 4 C15 4.66 15 5.32 15 6 C15.66 6 16.32 6 17 6 C17 6.66 17 7.32 17 8 C17.99 8.33 18.98 8.66 20 9 C17.65942846 9.82193222 16.4410801 10.16347293 14.07714844 9.28735352 C13.4277832 8.90506592 12.77841797 8.52277832 12.109375 8.12890625 C11.40039062 7.71962891 10.69140625 7.31035156 9.9609375 6.88867188 C9.23132813 6.45103516 8.50171875 6.01339844 7.75 5.5625 C6.63238281 4.9118457 6.63238281 4.9118457 5.4921875 4.24804688 C3.65500263 3.1763557 1.82662026 2.08960023 0 1 C0 0.67 0 0.34 0 0 Z " fill="#C34E5A" transform="translate(367,271)"/>
<path d="M0 0 C1.66666667 3.33333333 3.33333333 6.66666667 5 10 C6.32 9.67 7.64 9.34 9 9 C8.649375 9.78375 8.29875 10.5675 7.9375 11.375 C7.628125 12.24125 7.31875 13.1075 7 14 C7.33 14.66 7.66 15.32 8 16 C7.34 16.66 6.68 17.32 6 18 C4.68684387 15.70870707 3.37444807 13.4169845 2.0625 11.125 C1.50272461 10.14853516 1.50272461 10.14853516 0.93164062 9.15234375 C-1.88671875 4.2265625 -1.88671875 4.2265625 -3 2 C-2.01 2 -1.02 2 0 2 C0 1.34 0 0.68 0 0 Z " fill="#C03B47" transform="translate(92,368)"/>
<path d="M0 0 C-4.95 2.97 -9.9 5.94 -15 9 C-15.33 7.68 -15.66 6.36 -16 5 C-12.48812804 2.59185923 -10.27343092 1.63370592 -6 2 C-6 1.34 -6 0.68 -6 0 C-4 -1 -4 -1 0 0 Z " fill="#BF424F" transform="translate(160,257)"/>
<path d="M0 0 C4.02992782 0.55312735 8.02022924 1.1558062 12 2 C12.061875 2.61875 12.12375 3.2375 12.1875 3.875 C12.828919 6.27761141 12.828919 6.27761141 15.5625 7.25 C16.366875 7.4975 17.17125 7.745 18 8 C18 8.66 18 9.32 18 10 C13.7997229 9.09476787 10.42033539 7.09717906 6.75 4.9375 C6.1003125 4.56044922 5.450625 4.18339844 4.78125 3.79492188 C3.18494909 2.86765885 1.59212471 1.93441544 0 1 C0 0.67 0 0.34 0 0 Z " fill="#BD4552" transform="translate(82,233)"/>
<path d="M0 0 C1.15822266 -0.01836914 1.15822266 -0.01836914 2.33984375 -0.03710938 C6.2482648 -0.04726991 8.17641928 -0.02822048 11.5 2.1875 C0.61 2.6825 0.61 2.6825 -10.5 3.1875 C-10.83 2.5275 -11.16 1.8675 -11.5 1.1875 C-7.65413405 -0.09445532 -4.00677403 0.00334455 0 0 Z " fill="#BF4956" transform="translate(195.5,52.8125)"/>
<path d="M0 0 C1.32 0.33 2.64 0.66 4 1 C2.47017797 5.25306543 0.31799136 8.99264178 -2.0625 12.8125 C-2.42666016 13.40998047 -2.79082031 14.00746094 -3.16601562 14.62304688 C-4.08006254 16.10140371 -5.03635975 17.55348068 -6 19 C-6.33 19 -6.66 19 -7 19 C-7 17.02 -7 15.04 -7 13 C-6.01 13.33 -5.02 13.66 -4 14 C-4 12.68 -4 11.36 -4 10 C-3.34 10 -2.68 10 -2 10 C-1.67 8.35 -1.34 6.7 -1 5 C-0.34 5 0.32 5 1 5 C0.67 3.35 0.34 1.7 0 0 Z " fill="#BE4657" transform="translate(91,172)"/>
<path d="M0 0 C4.53847198 1.34927545 8.31932246 3.19159348 12.375 5.625 C13.43460938 6.25664063 14.49421875 6.88828125 15.5859375 7.5390625 C16.38257813 8.02117187 17.17921875 8.50328125 18 9 C14.30558125 10.23147292 13.48015214 9.44298991 10 8 C8.68 8 7.36 8 6 8 C6 6.68 6 5.36 6 4 C4.35 3.67 2.7 3.34 1 3 C0.67 2.01 0.34 1.02 0 0 Z " fill="#C85E69" transform="translate(138,113)"/>
<path d="M0 0 C2.31 0.66 4.62 1.32 7 2 C4.63202009 4.61724095 2.10399646 6.32861729 -1 8 C-1.66 8 -2.32 8 -3 8 C-3.75 6.25 -3.75 6.25 -4 4 C-2.0625 1.75 -2.0625 1.75 0 0 Z " fill="#C63848" transform="translate(124,394)"/>
<path d="M0 0 C0.66 0.33 1.32 0.66 2 1 C-0.10718352 4.16077527 -1.28915745 4.91214338 -4.5625 6.625 C-7.47302656 8.04679004 -7.47302656 8.04679004 -10 10 C-11.66617115 10.04063832 -13.33388095 10.042721 -15 10 C-10.47125612 6.07508864 -5.39401009 2.62540314 0 0 Z " fill="#C8616B" transform="translate(382,218)"/>
<path d="M0 0 C0.66 0.66 1.32 1.32 2 2 C0.375 4.0625 0.375 4.0625 -2 6 C-6.58246831 5.90038112 -10.02536057 4.17658826 -14 2 C-14 1.67 -14 1.34 -14 1 C-11.69 1 -9.38 1 -7 1 C-7 1.66 -7 2.32 -7 3 C-4.02934491 2.65772428 -4.02934491 2.65772428 -1 2 C-0.67 1.34 -0.34 0.68 0 0 Z " fill="#C14A5D" transform="translate(391,398)"/>
<path d="M0 0 C0 1.32 0 2.64 0 4 C-4.2505466 5.85961414 -8.49933525 6.93204565 -13 8 C-9.81692689 4.43495812 -5.03655764 0 0 0 Z " fill="#CB5B67" transform="translate(183,335)"/>
<path d="M0 0 C0.66 0.99 1.32 1.98 2 3 C1.01 3.495 1.01 3.495 0 4 C-0.73075648 6.3140622 -1.40138258 8.64828869 -2 11 C-2.66 11 -3.32 11 -4 11 C-4.103125 11.598125 -4.20625 12.19625 -4.3125 12.8125 C-5.08876455 15.28243264 -6.07088921 16.32251235 -8 18 C-8.33 17.34 -8.66 16.68 -9 16 C-8.28735352 14.30419922 -8.28735352 14.30419922 -7.12890625 12.3046875 C-6.71962891 11.58925781 -6.31035156 10.87382812 -5.88867188 10.13671875 C-5.45103516 9.39035156 -5.01339844 8.64398438 -4.5625 7.875 C-4.12873047 7.12089844 -3.69496094 6.36679688 -3.24804688 5.58984375 C-2.17251034 3.72242866 -1.08715861 1.86067303 0 0 Z " fill="#C8626E" transform="translate(63,174)"/>
<path d="M0 0 C0.125 4.75 0.125 4.75 -1 7 C-3.91517292 5.92598892 -5.77810176 5.22189824 -8 3 C-8 2.34 -8 1.68 -8 1 C-2.25 -1.125 -2.25 -1.125 0 0 Z " fill="#C6303E" transform="translate(415,290)"/>
<path d="M0 0 C1 2 1 2 0.0625 5.125 C-0.288125 6.07375 -0.63875 7.0225 -1 8 C-1.66 8 -2.32 8 -3 8 C-3.66 9.98 -4.32 11.96 -5 14 C-5.66 14 -6.32 14 -7 14 C-7.33 15.65 -7.66 17.3 -8 19 C-8.66 19 -9.32 19 -10 19 C-8.62394084 14.23448987 -6.53221934 10.2751447 -3.875 6.125 C-3.50246094 5.53203125 -3.12992187 4.9390625 -2.74609375 4.328125 C-1.83635 2.8818657 -0.91896202 1.44041954 0 0 Z " fill="#CD6D76" transform="translate(80,145)"/>
<path d="M0 0 C3.65249796 0.5277692 6.56270466 2.27913237 9.75 4.0625 C10.73484375 4.61035156 11.7196875 5.15820312 12.734375 5.72265625 C13.48203125 6.14417969 14.2296875 6.56570313 15 7 C15 7.33 15 7.66 15 8 C9.06720225 8.74159972 5.58963335 6.41121397 1 3 C0.34 2.34 -0.32 1.68 -1 1 C-0.67 0.67 -0.34 0.34 0 0 Z " fill="#C54A57" transform="translate(299,326)"/>
<path d="M0 0 C0.66 0.66 1.32 1.32 2 2 C2.33 1.34 2.66 0.68 3 0 C5.31 0 7.62 0 10 0 C7.72254211 2.48982535 5.37664762 4.10368997 2.4375 5.75 C1.65246094 6.19859375 0.86742187 6.6471875 0.05859375 7.109375 C-0.62074219 7.40328125 -1.30007813 7.6971875 -2 8 C-2.66 7.67 -3.32 7.34 -4 7 C-3.67 6.34 -3.34 5.68 -3 5 C-2.01 5 -1.02 5 0 5 C0 3.35 0 1.7 0 0 Z " fill="#C95963" transform="translate(433,214)"/>
<path d="M0 0 C1.32 0.33 2.64 0.66 4 1 C3.67 2.98 3.34 4.96 3 7 C4.65 7.33 6.3 7.66 8 8 C8.33 8.99 8.66 9.98 9 11 C8.34 11 7.68 11 7 11 C7 10.34 7 9.68 7 9 C5.824375 8.8453125 5.824375 8.8453125 4.625 8.6875 C2 8 2 8 0 5 C-0.125 2.3125 -0.125 2.3125 0 0 Z " fill="#BF4853" transform="translate(45,206)"/>
<path d="M0 0 C1.093125 0.226875 2.18625 0.45375 3.3125 0.6875 C3.3125 1.0175 3.3125 1.3475 3.3125 1.6875 C2.36375 1.81125 1.415 1.935 0.4375 2.0625 C-2.77417191 2.40437177 -2.77417191 2.40437177 -4.6875 4.6875 C-4.99349063 7.25666657 -5.19837087 9.73508384 -5.3125 12.3125 C-5.35117187 13.01890625 -5.38984375 13.7253125 -5.4296875 14.453125 C-5.52397724 16.19748524 -5.60682891 17.94245691 -5.6875 19.6875 C-6.0175 19.6875 -6.3475 19.6875 -6.6875 19.6875 C-6.76839542 16.91608283 -6.82794062 14.14702181 -6.875 11.375 C-6.91270508 10.19647461 -6.91270508 10.19647461 -6.95117188 8.99414062 C-6.96083984 8.23681641 -6.97050781 7.47949219 -6.98046875 6.69921875 C-6.9961792 6.00272217 -7.01188965 5.30622559 -7.02807617 4.58862305 C-6.24288508 0.20562445 -4.1630107 -0.35279752 0 0 Z " fill="#B95D66" transform="translate(295.6875,324.3125)"/>
<path d="M0 0 C0.53109375 0.28875 1.0621875 0.5775 1.609375 0.875 C2.31578125 1.24625 3.0221875 1.6175 3.75 2 C4.44609375 2.37125 5.1421875 2.7425 5.859375 3.125 C8.23167757 4.25224649 8.23167757 4.25224649 12 4 C11.67 4.99 11.34 5.98 11 7 C9.02 7 7.04 7 5 7 C5 6.34 5 5.68 5 5 C3.35 4.67 1.7 4.34 0 4 C0 2.68 0 1.36 0 0 Z " fill="#C74D5A" transform="translate(369,364)"/>
<path d="M0 0 C0.66 0 1.32 0 2 0 C3.98 3.96 5.96 7.92 8 12 C7.01 12.495 7.01 12.495 6 13 C5.731875 12.38125 5.46375 11.7625 5.1875 11.125 C4.04443152 8.7004767 4.04443152 8.7004767 1 7 C1 6.01 1 5.02 1 4 C0.34 3.67 -0.32 3.34 -1 3 C-0.67 2.01 -0.34 1.02 0 0 Z " fill="#BD3F4A" transform="translate(107,349)"/>
<path d="M0 0 C3.82053924 1.27351308 4.23021375 2.62637525 6.1875 6.0625 C6.71730469 6.98160156 7.24710937 7.90070313 7.79296875 8.84765625 C8.19128906 9.55792969 8.58960938 10.26820313 9 11 C8.01 12.485 8.01 12.485 7 14 C5.82807953 12.04480616 4.6626071 10.0857461 3.5 8.125 C2.8503125 7.03445312 2.200625 5.94390625 1.53125 4.8203125 C0 2 0 2 0 0 Z " fill="#C7545D" transform="translate(401,168)"/>
<path d="M0 0 C1 2 1 2 0.3125 5.375 C-0.99366787 8.98251125 -2.09973607 10.58311339 -5 13 C-5.66 12.67 -6.32 12.34 -7 12 C-4.69 8.04 -2.38 4.08 0 0 Z " fill="#C54D5B" transform="translate(99,112)"/>
<path d="M0 0 C3.77545388 1.09068668 6.47043472 1.9083091 9 5 C6.66785852 6.20628008 4.50357861 7.1654738 2 8 C1.34 5.36 0.68 2.72 0 0 Z " fill="#C13D4A" transform="translate(88,206)"/>
<path d="M0 0 C0.99 0.33 1.98 0.66 3 1 C2.401875 1.433125 1.80375 1.86625 1.1875 2.3125 C-0.96842337 3.87727289 -0.96842337 3.87727289 -2.4375 5.5625 C-4.49065362 7.45140133 -6.32996015 8.21852492 -9 9 C-11.16015625 8.546875 -11.16015625 8.546875 -13 8 C-12.14535156 7.50628906 -11.29070312 7.01257813 -10.41015625 6.50390625 C-9.30542969 5.86324219 -8.20070312 5.22257812 -7.0625 4.5625 C-5.96035156 3.92441406 -4.85820312 3.28632813 -3.72265625 2.62890625 C-1.1716429 1.25289773 -1.1716429 1.25289773 0 0 Z " fill="#BF515A" transform="translate(147,355)"/>
<path d="M0 0 C0.99 0.33 1.98 0.66 3 1 C2.67 1.66 2.34 2.32 2 3 C-0.5625 3.625 -0.5625 3.625 -3 4 C-3 4.66 -3 5.32 -3 6 C-5.64 6.33 -8.28 6.66 -11 7 C-7.52671426 4.22137141 -3.9587532 2.01536527 0 0 Z " fill="#C04654" transform="translate(335,122)"/>
<path d="M0 0 C5.31027254 1.46032495 9.46330032 3.98320986 14 7 C10.93109813 8.53445094 8.29905734 7.54984289 5 7 C5 5.68 5 4.36 5 3 C4.01 3.33 3.02 3.66 2 4 C1.34 2.68 0.68 1.36 0 0 Z " fill="#C6616C" transform="translate(119,102)"/>
<path d="M0 0 C0 0.66 0 1.32 0 2 C-4.73036356 5.9580593 -7.86230717 7.62422289 -14 8 C-4.57142857 0 -4.57142857 0 0 0 Z " fill="#C25460" transform="translate(170,343)"/>
<path d="M0 0 C3.37244652 3.99697365 6.71374722 8.27090179 9 13 C8.67 13.66 8.34 14.32 8 15 C6.078125 14.2890625 6.078125 14.2890625 4 13 C3.171875 10.8359375 3.171875 10.8359375 2.75 8.375 C2.60046875 7.55773437 2.4509375 6.74046875 2.296875 5.8984375 C2.19890625 5.27195312 2.1009375 4.64546875 2 4 C1.34 4 0.68 4 0 4 C0 2.68 0 1.36 0 0 Z " fill="#CB5E6B" transform="translate(94,325)"/>
<path d="M0 0 C1.98 0.99 1.98 0.99 4 2 C4.99 2 5.98 2 7 2 C7.125 4.875 7.125 4.875 7 8 C6.34 8.66 5.68 9.32 5 10 C3.35 6.7 1.7 3.4 0 0 Z " fill="#C24551" transform="translate(56,313)"/>
<path d="M0 0 C-2.79196011 3.28465896 -6.23196817 5.01321958 -10 7 C-10.66 7 -11.32 7 -12 7 C-11.08137175 3.82655696 -10.61971964 2.35173277 -7.6875 0.6875 C-4.99859913 -0.00035836 -2.76192463 -0.15782426 0 0 Z " fill="#C45A66" transform="translate(106,288)"/>
<path d="M0 0 C3.99500618 1.3697164 6.80009492 3.25722422 10 6 C9.071875 5.979375 8.14375 5.95875 7.1875 5.9375 C3.97713989 5.84230396 3.97713989 5.84230396 1 7 C0.67 4.69 0.34 2.38 0 0 Z " fill="#CA515B" transform="translate(399,259)"/>
<path d="M0 0 C-0.33 1.32 -0.66 2.64 -1 4 C-2.98 4 -4.96 4 -7 4 C-7.33 4.99 -7.66 5.98 -8 7 C-9.65 7 -11.3 7 -13 7 C-11.68127681 4.36255362 -10.1888025 3.79380332 -7.625 2.375 C-6.83351563 1.92898437 -6.04203125 1.48296875 -5.2265625 1.0234375 C-3 0 -3 0 0 0 Z " fill="#C3515A" transform="translate(401,209)"/>
<path d="M0 0 C2.40575607 2.18517099 3.79535581 4.25919671 5.1875 7.1875 C5.53167969 7.90292969 5.87585938 8.61835937 6.23046875 9.35546875 C6.48441406 9.89816406 6.73835938 10.44085938 7 11 C6.01 11.495 6.01 11.495 5 12 C0.07692308 6.83076923 0.07692308 6.83076923 -0.3125 2.625 C-0.209375 1.75875 -0.10625 0.8925 0 0 Z " fill="#C03F48" transform="translate(397,109)"/>
<path d="M0 0 C2.875 1.5 2.875 1.5 5 3 C3.02 3.99 3.02 3.99 1 5 C0.34 4.34 -0.32 3.68 -1 3 C-2.9931567 2.97624074 -2.9931567 2.97624074 -5.125 3.375 C-6.40375 3.58125 -7.6825 3.7875 -9 4 C-8.67 3.01 -8.34 2.02 -8 1 C-5.17998673 -0.41000664 -3.12992745 -0.24548451 0 0 Z " fill="#C45867" transform="translate(114,98)"/>
<path d="M0 0 C0.66 0.33 1.32 0.66 2 1 C1.34 2.98 0.68 4.96 0 7 C-2.91517292 5.92598892 -4.77810176 5.22189824 -7 3 C-4.69631264 1.93347808 -2.35981813 0.93578995 0 0 Z " fill="#C63849" transform="translate(366,386)"/>
<path d="M0 0 C2.31 0.33 4.62 0.66 7 1 C6.38461538 7.52307692 6.38461538 7.52307692 4.4375 9.9375 C3.963125 10.288125 3.48875 10.63875 3 11 C2 9 2 9 2.9375 5.875 C3.288125 4.92625 3.63875 3.9775 4 3 C2.68 2.34 1.36 1.68 0 1 C0 0.67 0 0.34 0 0 Z " fill="#CB616C" transform="translate(414,297)"/>
<path d="M0 0 C-2.79716804 3.29078593 -6.19528578 5.06305458 -10 7 C-10.66 6.67 -11.32 6.34 -12 6 C-11 3 -11 3 -8.25 1.3125 C-5.14979295 0.06049331 -3.28328088 -0.28970125 0 0 Z " fill="#CA5B67" transform="translate(354,143)"/>
<path d="M0 0 C3.48331435 3.01887244 4.79157144 5.56909529 6 10 C5.34 10 4.68 10 4 10 C3.34 9.01 2.68 8.02 2 7 C-0.05003955 5.80767387 -0.05003955 5.80767387 -2 5 C-1.34 3.35 -0.68 1.7 0 0 Z " fill="#C65864" transform="translate(405,122)"/>
<path d="M0 0 C0.49230769 6.4 0.49230769 6.4 -2 9.4375 C-2.99 10.2109375 -2.99 10.2109375 -4 11 C-4.3682455 3.51234156 -4.3682455 3.51234156 -2.5625 1 C-1 0 -1 0 0 0 Z " fill="#C53542" transform="translate(409,367)"/>
<path d="M0 0 C1.98 0 3.96 0 6 0 C2.18765077 3.3502463 -1.33285711 5.16974789 -6 7 C-6 6.01 -6 5.02 -6 4 C-5.34 4 -4.68 4 -4 4 C-4 3.34 -4 2.68 -4 2 C-2.68 2.33 -1.36 2.66 0 3 C0 2.01 0 1.02 0 0 Z " fill="#C75B68" transform="translate(408,231)"/>
<path d="M0 0 C0.99 0.495 0.99 0.495 2 1 C1.01 1.495 1.01 1.495 0 2 C0 1.34 0 0.68 0 0 Z M0 2 C0 3.98 0 5.96 0 8 C-2.91517292 6.92598892 -4.77810176 6.22189824 -7 4 C-2.25 2 -2.25 2 0 2 Z " fill="#BF2C39" transform="translate(158,146)"/>
<path d="M0 0 C0.66 0.99 1.32 1.98 2 3 C1.34 3 0.68 3 0 3 C-0.12375 3.763125 -0.2475 4.52625 -0.375 5.3125 C-1 8 -1 8 -3 11 C-3.99 10.67 -4.98 10.34 -6 10 C-4.02 6.7 -2.04 3.4 0 0 Z " fill="#C64854" transform="translate(407,322)"/>
<path d="M0 0 C0.99 0 1.98 0 3 0 C1.52440331 4.42679007 -0.90057368 4.91432696 -5 7 C-5.66 7 -6.32 7 -7 7 C-7 6.01 -7 5.02 -7 4 C-6.01 4 -5.02 4 -4 4 C-4 3.34 -4 2.68 -4 2 C-2.68 2 -1.36 2 0 2 C0 1.34 0 0.68 0 0 Z " fill="#C44955" transform="translate(140,265)"/>
<path d="M0 0 C0.8353125 0.556875 0.8353125 0.556875 1.6875 1.125 C-1.37367568 3.74886487 -2.04423127 4.125 -6.3125 4.125 C-6.6425 3.135 -6.9725 2.145 -7.3125 1.125 C-2.88173077 -1.09038462 -2.88173077 -1.09038462 0 0 Z " fill="#BB141D" transform="translate(344.3125,245.875)"/>
<path d="M0 0 C0.96516243 3.00272755 1.22393475 5.04215769 0 8 C-0.99 8.33 -1.98 8.66 -3 9 C-3 9.66 -3 10.32 -3 11 C-3.66 11 -4.32 11 -5 11 C-3.55049545 7.2089881 -1.84827434 3.6125362 0 0 Z " fill="#C34B56" transform="translate(86,134)"/>
<path d="M0 0 C1.73662334 3.22515763 2.8905928 6.51329166 4 10 C3.01 10 2.02 10 1 10 C-0.32 7.36 -1.64 4.72 -3 2 C-2.01 2 -1.02 2 0 2 C0 1.34 0 0.68 0 0 Z " fill="#C6515D" transform="translate(92,368)"/>
<path d="M0 0 C1.0326802 2.78823655 1.04509293 3.8677274 0.0625 6.75 C-0.288125 7.4925 -0.63875 8.235 -1 9 C-1.66 9 -2.32 9 -3 9 C-3 9.66 -3 10.32 -3 11 C-3.66 11 -4.32 11 -5 11 C-4.32902328 6.80639551 -2.1441606 3.59665648 0 0 Z " fill="#C7565F" transform="translate(413,311)"/>
<path d="M0 0 C0 2 0 2 -1.20703125 3.55078125 C-3.36220519 5.2927628 -4.97895327 5.67719409 -7.6875 6.1875 C-8.49574219 6.34605469 -9.30398437 6.50460937 -10.13671875 6.66796875 C-11.05904297 6.83232422 -11.05904297 6.83232422 -12 7 C-8.96533294 3.76116573 -4.61110165 0 0 0 Z " fill="#C65B66" transform="translate(91,267)"/>
<path d="M0 0 C0.66 0 1.32 0 2 0 C0.43358249 4.30764815 -1.68336156 8.06171464 -4 12 C-4.66 11.01 -5.32 10.02 -6 9 C-5.34 9 -4.68 9 -4 9 C-4 8.01 -4 7.02 -4 6 C-3.34 6 -2.68 6 -2 6 C-2 4.68 -2 3.36 -2 2 C-1.34 2 -0.68 2 0 2 C0 1.34 0 0.68 0 0 Z " fill="#C9646E" transform="translate(113,138)"/>
<path d="M0 0 C4.42857143 5.14285714 4.42857143 5.14285714 5 9 C4.01 8.67 3.02 8.34 2 8 C1.67 7.34 1.34 6.68 1 6 C0.01 5.34 -0.98 4.68 -2 4 C-1.34 2.68 -0.68 1.36 0 0 Z " fill="#C34755" transform="translate(413,135)"/>
<path d="M0 0 C0 0.66 0 1.32 0 2 C-0.66 2 -1.32 2 -2 2 C-2.33 2.99 -2.66 3.98 -3 5 C-5.31 5.33 -7.62 5.66 -10 6 C-7.35570758 3.077361 -4.105808 0 0 0 Z " fill="#C45E64" transform="translate(134,364)"/>
<path d="M0 0 C4.05281712 1.22527029 7.44360764 2.69880494 11 5 C7.95904675 5.97744926 6.00367313 6.16271218 3 5 C1.25 3.5625 1.25 3.5625 0 2 C0 1.34 0 0.68 0 0 Z " fill="#C6535E" transform="translate(350,354)"/>
<path d="M0 0 C0.66 1.32 1.32 2.64 2 4 C0.625 6 0.625 6 -1 8 C-1.66 8 -2.32 8 -3 8 C-3 8.66 -3 9.32 -3 10 C-3.66 10 -4.32 10 -5 10 C-3.66511872 6.40608886 -2.03977277 3.24509304 0 0 Z " fill="#C74A5A" transform="translate(391,349)"/>
<path d="M0 0 C4.30764815 1.56641751 8.06171464 3.68336156 12 6 C11.34 6.66 10.68 7.32 10 8 C10 7.34 10 6.68 10 6 C9.0925 5.896875 8.185 5.79375 7.25 5.6875 C3.96928156 4.99350187 2.39110905 4.29914332 0 2 C0 1.34 0 0.68 0 0 Z " fill="#CF6D78" transform="translate(338,347)"/>
<path d="M0 0 C0 3 0 3 -1.0625 4.625 C-3.87456882 6.62066174 -6.62268141 6.68138504 -10 7 C-7.2180632 3.72713318 -3.72045933 2.03572303 0 0 Z " fill="#CA6B73" transform="translate(70,278)"/>
<path d="M0 0 C0.99 0.33 1.98 0.66 3 1 C3 3.31 3 5.62 3 8 C2.01 8.33 1.02 8.66 0 9 C0 6.03 0 3.06 0 0 Z " fill="#C15963" transform="translate(160,247)"/>
<path d="M0 0 C0 0.66 0 1.32 0 2 C-5.445 4.475 -5.445 4.475 -11 7 C-11 6.01 -11 5.02 -11 4 C-10.360625 3.87625 -9.72125 3.7525 -9.0625 3.625 C-8.0415625 3.315625 -8.0415625 3.315625 -7 3 C-6.67 2.34 -6.34 1.68 -6 1 C-3 0 -3 0 0 0 Z " fill="#C45460" transform="translate(328,157)"/>
<path d="M0 0 C2.31 0.66 4.62 1.32 7 2 C6.01 2.33 5.02 2.66 4 3 C2.78130071 5.50447516 2.78130071 5.50447516 2 8 C1.67 8 1.34 8 1 8 C0.34 5.69 -0.32 3.38 -1 1 C-0.67 0.67 -0.34 0.34 0 0 Z " fill="#C84150" transform="translate(114,130)"/>
<path d="M0 0 C0.66 0.33 1.32 0.66 2 1 C-0.97 5.95 -0.97 5.95 -4 11 C-4.33 9.68 -4.66 8.36 -5 7 C-4.34 7 -3.68 7 -3 7 C-3.061875 6.21625 -3.12375 5.4325 -3.1875 4.625 C-3.125625 3.75875 -3.06375 2.8925 -3 2 C-2.01 1.34 -1.02 0.68 0 0 Z " fill="#C1525C" transform="translate(432,330)"/>
<path d="M0 0 C3.63 1.65 7.26 3.3 11 5 C7.4268387 6.19105377 5.59356359 6.0704232 2 5 C1.34 3.35 0.68 1.7 0 0 Z " fill="#CB666E" transform="translate(430,276)"/>
<path d="M0 0 C2.97 0.33 5.94 0.66 9 1 C9 2.32 9 3.64 9 5 C5.9168649 3.80100302 2.93720508 2.52299523 0 1 C0 0.67 0 0.34 0 0 Z " fill="#C44652" transform="translate(356,265)"/>
<path d="M0 0 C0.66 0.33 1.32 0.66 2 1 C1.67 3.31 1.34 5.62 1 8 C0.01 8.33 -0.98 8.66 -2 9 C-2.6875 7.3125 -2.6875 7.3125 -3 5 C-1.5625 2.25 -1.5625 2.25 0 0 Z " fill="#BC121D" transform="translate(91,169)"/>
<path d="M0 0 C2.97 0.33 5.94 0.66 9 1 C9 2.32 9 3.64 9 5 C4.89198233 3.81323934 3.10551666 3.10551666 0 0 Z " fill="#C96870" transform="translate(187,171)"/>
<path d="M0 0 C1.32 0.33 2.64 0.66 4 1 C1.525 5.455 1.525 5.455 -1 10 C-1.33 10 -1.66 10 -2 10 C-2 8.35 -2 6.7 -2 5 C-1.34 5 -0.68 5 0 5 C0 3.35 0 1.7 0 0 Z " fill="#CB636C" transform="translate(397,386)"/>
<path d="M0 0 C2.475 0.495 2.475 0.495 5 1 C5.33 2.98 5.66 4.96 6 7 C5.01 7.495 5.01 7.495 4 8 C2.68 5.36 1.36 2.72 0 0 Z " fill="#BF3E4B" transform="translate(66,330)"/>
<path d="M0 0 C0.66 0.99 1.32 1.98 2 3 C2.99 3.66 3.98 4.32 5 5 C4.01 5.99 3.02 6.98 2 8 C2 7.34 2 6.68 2 6 C1.01 5.67 0.02 5.34 -1 5 C-1 1 -1 1 0 0 Z " fill="#C43643" transform="translate(442,304)"/>
<path d="M0 0 C0.66 0.33 1.32 0.66 2 1 C2 1.66 2 2.32 2 3 C0.71211992 3.53012738 -0.58046678 4.0488329 -1.875 4.5625 C-2.95394531 4.99755859 -2.95394531 4.99755859 -4.0546875 5.44140625 C-6 6 -6 6 -8 5 C-6.71475739 4.13619741 -5.42157581 3.28419631 -4.125 2.4375 C-3.04605469 1.72400391 -3.04605469 1.72400391 -1.9453125 0.99609375 C-1.30335937 0.66738281 -0.66140625 0.33867187 0 0 Z " fill="#CD6973" transform="translate(109,255)"/>
<path d="M0 0 C3.0831351 1.19899698 6.06279492 2.47700477 9 4 C8.34 4.66 7.68 5.32 7 6 C4.0625 5.25 4.0625 5.25 1 4 C0.125 1.875 0.125 1.875 0 0 Z " fill="#C75665" transform="translate(130,230)"/>
<path d="M0 0 C2.64 0.33 5.28 0.66 8 1 C8.33 2.32 8.66 3.64 9 5 C5.22454612 3.90931332 2.52956528 3.0916909 0 0 Z " fill="#C34F60" transform="translate(142,145)"/>
<path d="M0 0 C-6.75 4 -6.75 4 -9 4 C-9 2.68 -9 1.36 -9 0 C-3.375 -1.125 -3.375 -1.125 0 0 Z " fill="#C14250" transform="translate(371,134)"/>
<path d="M0 0 C-0.33 0.99 -0.66 1.98 -1 3 C-1.99 3 -2.98 3 -4 3 C-4.33 3.66 -4.66 4.32 -5 5 C-6.32 4.34 -7.64 3.68 -9 3 C-5.55930376 0.70620251 -4.27709699 0 0 0 Z " fill="#C1434C" transform="translate(360,110)"/>
<path d="M0 0 C0.66 0 1.32 0 2 0 C2 0.66 2 1.32 2 2 C2.66 2 3.32 2 4 2 C4 2.66 4 3.32 4 4 C4.99 4.33 5.98 4.66 7 5 C5.25 5.75 5.25 5.75 3 6 C0.75 4.0625 0.75 4.0625 -1 2 C-0.67 1.34 -0.34 0.68 0 0 Z " fill="#BD3B49" transform="translate(380,275)"/>
<path d="M0 0 C0.226875 0.61875 0.45375 1.2375 0.6875 1.875 C2.37929835 4.61410209 3.99244161 5.05024472 7 6 C7 6.66 7 7.32 7 8 C3.12867972 7.42647107 0.91827204 5.51295648 -2 3 C-1.34 2.01 -0.68 1.02 0 0 Z " fill="#C7535D" transform="translate(93,235)"/>
<path d="M0 0 C4.42857143 5.14285714 4.42857143 5.14285714 5 9 C3.68 9.33 2.36 9.66 1 10 C0.67 6.7 0.34 3.4 0 0 Z " fill="#CA5D66" transform="translate(440,180)"/>
<path d="M0 0 C0.66 0 1.32 0 2 0 C2 0.66 2 1.32 2 2 C2.66 2.33 3.32 2.66 4 3 C6 5 6 5 6.125 7.625 C6.08375 8.40875 6.0425 9.1925 6 10 C3.25722422 6.80009492 1.3697164 3.99500618 0 0 Z " fill="#CE6067" transform="translate(99,386)"/>
<path d="M0 0 C-1.2491742 3.45925163 -2.67527795 6.14693203 -5 9 C-5 6.36 -5 3.72 -5 1 C-2 0 -2 0 0 0 Z " fill="#C6525C" transform="translate(424,346)"/>
<path d="M0 0 C1.32 0.66 2.64 1.32 4 2 C3.484375 2.4125 2.96875 2.825 2.4375 3.25 C1.963125 3.8275 1.48875 4.405 1 5 C1.22757731 7.16299211 1.22757731 7.16299211 2 9 C1.01 8.67 0.02 8.34 -1 8 C-0.67 5.36 -0.34 2.72 0 0 Z " fill="#CA5C67" transform="translate(82,299)"/>
<path d="M0 0 C0.66 0 1.32 0 2 0 C1.39301257 4.12751449 -0.03810791 7.3321148 -2 11 C-2.33 11 -2.66 11 -3 11 C-3 9.35 -3 7.7 -3 6 C-2.34 6 -1.68 6 -1 6 C-0.67 4.02 -0.34 2.04 0 0 Z " fill="#C3515C" transform="translate(450,297)"/>
<path d="M0 0 C3.45925163 1.2491742 6.14693203 2.67527795 9 5 C6.75 5.75 6.75 5.75 4 6 C1.6875 4.1875 1.6875 4.1875 0 2 C0 1.34 0 0.68 0 0 Z " fill="#C34452" transform="translate(420,271)"/>
<path d="M0 0 C3.3 1.65 6.6 3.3 10 5 C7 6 7 6 4.4375 5.3125 C2 4 2 4 0 0 Z " fill="#C35962" transform="translate(410,265)"/>
<path d="M0 0 C2.31 0 4.62 0 7 0 C4.31158141 2.25245881 2.35358125 3.88213958 -1 5 C-0.67 3.35 -0.34 1.7 0 0 Z " fill="#C95363" transform="translate(145,261)"/>
<path d="M0 0 C2.72426311 2.35277269 3.8141763 4.62496331 5 8 C4.01 8.495 4.01 8.495 3 9 C2.34 8.67 1.68 8.34 1 8 C0.40644386 5.35139573 0.25790731 2.70802678 0 0 Z " fill="#CD6271" transform="translate(426,157)"/>
<path d="M0 0 C6.52307692 -0.36923077 6.52307692 -0.36923077 8.9375 1.5 C9.288125 1.995 9.63875 2.49 10 3 C9.67 3.99 9.34 4.98 9 6 C8.34 5.67 7.68 5.34 7 5 C7 4.01 7 3.02 7 2 C4.69 1.67 2.38 1.34 0 1 C0 0.67 0 0.34 0 0 Z " fill="#B83D4B" transform="translate(301,52)"/>
<path d="M0 0 C1.32 0.66 2.64 1.32 4 2 C1.03 3.32 -1.94 4.64 -5 6 C-5 5.01 -5 4.02 -5 3 C-3.35 2.67 -1.7 2.34 0 2 C0 1.34 0 0.68 0 0 Z " fill="#C24D59" transform="translate(155,379)"/>
<path d="M0 0 C3.375 -0.125 3.375 -0.125 7 0 C7.66 0.66 8.32 1.32 9 2 C7.02 2.99 7.02 2.99 5 4 C3.35 2.68 1.7 1.36 0 0 Z " fill="#C6475A" transform="translate(323,369)"/>
<path d="M0 0 C1.98 0.99 1.98 0.99 4 2 C4 3.32 4 4.64 4 6 C4.66 6 5.32 6 6 6 C5.67 7.32 5.34 8.64 5 10 C3.35 6.7 1.7 3.4 0 0 Z " fill="#C0515A" transform="translate(75,345)"/>
<path d="M0 0 C0 0.66 0 1.32 0 2 C-0.99 2 -1.98 2 -3 2 C-3.66 3.65 -4.32 5.3 -5 7 C-5.66 6.67 -6.32 6.34 -7 6 C-7 5.01 -7 4.02 -7 3 C-2.77777778 0 -2.77777778 0 0 0 Z " fill="#C8606D" transform="translate(200,325)"/>
<path d="M0 0 C2.0625 0.4375 2.0625 0.4375 4 1 C3.1875 2.9375 3.1875 2.9375 2 5 C1.01 5.33 0.02 5.66 -1 6 C-1.042721 4.33388095 -1.04063832 2.66617115 -1 1 C-0.67 0.67 -0.34 0.34 0 0 Z " fill="#B92733" transform="translate(92,265)"/>
<path d="M0 0 C0.33 0.66 0.66 1.32 1 2 C1.66 2.33 2.32 2.66 3 3 C1.02 3.99 1.02 3.99 -1 5 C-2.65 3.68 -4.3 2.36 -6 1 C-4.7934375 1.0309375 -4.7934375 1.0309375 -3.5625 1.0625 C-1.06645115 1.29633621 -1.06645115 1.29633621 0 0 Z " fill="#CA515D" transform="translate(351,258)"/>
<path d="M0 0 C-2 3 -2 3 -3.9375 3.8125 C-6 4 -6 4 -9 2 C-5.5647952 -0.29013653 -4.014669 -0.17842973 0 0 Z " fill="#C02F3D" transform="translate(371,228)"/>
<path d="M0 0 C3.36591427 2.72478774 4.44226276 6.06856792 6 10 C5.01 10 4.02 10 3 10 C2.67 8.02 2.34 6.04 2 4 C1.34 4 0.68 4 0 4 C0 2.68 0 1.36 0 0 Z " fill="#C15D64" transform="translate(434,170)"/>
<path d="M0 0 C1.32 0.33 2.64 0.66 4 1 C2.8141763 4.37503669 1.72426311 6.64722731 -1 9 C-1.33 8.01 -1.66 7.02 -2 6 C-1.01 5.67 -0.02 5.34 1 5 C0.67 3.35 0.34 1.7 0 0 Z " fill="#D06973" transform="translate(91,172)"/>
<path d="M0 0 C0.33 0 0.66 0 1 0 C1 1.98 1 3.96 1 6 C-0.65 6.66 -2.3 7.32 -4 8 C-2.68 5.36 -1.36 2.72 0 0 Z " fill="#BF4A54" transform="translate(68,166)"/>
<path d="M0 0 C2.31 0 4.62 0 7 0 C7.33 0.66 7.66 1.32 8 2 C7.67 2.66 7.34 3.32 7 4 C4.08482708 2.92598892 2.22189824 2.22189824 0 0 Z " fill="#CC515E" transform="translate(370,395)"/>
<path d="M0 0 C1.10868317 3.32604951 1.54177532 6.53058454 2 10 C1.34 10 0.68 10 0 10 C-2.21538462 4.58461538 -2.21538462 4.58461538 -1.125 1.625 C-0.75375 1.08875 -0.3825 0.5525 0 0 Z " fill="#C66B78" transform="translate(48,291)"/>
<path d="M0 0 C5.75 1.875 5.75 1.875 8 3 C7.67 3.99 7.34 4.98 7 6 C3.535 4.02 3.535 4.02 0 2 C0 1.34 0 0.68 0 0 Z " fill="#CB6A73" transform="translate(334,252)"/>
<path d="M0 0 C3.96 1.98 3.96 1.98 8 4 C6.02 4.99 6.02 4.99 4 6 C3.34 4.68 2.68 3.36 2 2 C1.34 2 0.68 2 0 2 C0 1.34 0 0.68 0 0 Z " fill="#C7505C" transform="translate(143,237)"/>
<path d="M0 0 C0.33 0.66 0.66 1.32 1 2 C1.66 2 2.32 2 3 2 C3 2.66 3 3.32 3 4 C0.69 4 -1.62 4 -4 4 C-3.67 3.01 -3.34 2.02 -3 1 C-2.01 0.67 -1.02 0.34 0 0 Z " fill="#B9212C" transform="translate(291,172)"/>
<path d="M0 0 C0.66 0 1.32 0 2 0 C2.33 1.32 2.66 2.64 3 4 C-1 4 -1 4 -2.75 2.5 C-3.1625 2.005 -3.575 1.51 -4 1 C-2.68 1.33 -1.36 1.66 0 2 C0 1.34 0 0.68 0 0 Z " fill="#CB424E" transform="translate(171,158)"/>
<path d="M0 0 C0.99 0.33 1.98 0.66 3 1 C3.185625 2.2065625 3.185625 2.2065625 3.375 3.4375 C3.58125 4.283125 3.7875 5.12875 4 6 C4.66 6.33 5.32 6.66 6 7 C5.34 7.66 4.68 8.32 4 9 C0 2.25 0 2.25 0 0 Z " fill="#C75966" transform="translate(391,151)"/>
<path d="M0 0 C3.375 4.5 3.375 4.5 4 8 C3.01 8.66 2.02 9.32 1 10 C0.67 6.7 0.34 3.4 0 0 Z " fill="#C74956" transform="translate(393,101)"/>
<path d="M0 0 C3.96 1.98 3.96 1.98 8 4 C4 5 4 5 1.75 3.6875 C1.1725 3.130625 0.595 2.57375 0 2 C0 1.34 0 0.68 0 0 Z " fill="#C6636D" transform="translate(329,342)"/>
<path d="M0 0 C2.16874252 0.50603992 3.99967627 0.99983813 6 2 C5.67 2.99 5.34 3.98 5 5 C3.02 4.01 1.04 3.02 -1 2 C-0.67 1.34 -0.34 0.68 0 0 Z " fill="#C9616C" transform="translate(299,326)"/>
<path d="M0 0 C0 0.66 0 1.32 0 2 C0.99 2.33 1.98 2.66 3 3 C3 3.66 3 4.32 3 5 C0.97954558 4.39816251 -1.02111039 3.72693904 -3 3 C-3.33 2.34 -3.66 1.68 -4 1 C-2 0 -2 0 0 0 Z " fill="#C64E5C" transform="translate(109,245)"/>
<path d="M0 0 C3.96 1.98 3.96 1.98 8 4 C8 4.33 8 4.66 8 5 C6.35 5 4.7 5 3 5 C3 4.34 3 3.68 3 3 C2.01 2.67 1.02 2.34 0 2 C0 1.34 0 0.68 0 0 Z " fill="#CC666F" transform="translate(117,222)"/>
<path d="M0 0 C-3.96 1.98 -3.96 1.98 -8 4 C-8.33 3.01 -8.66 2.02 -9 1 C-5.19495213 -0.79682816 -4.29399165 -1.07349791 0 0 Z " fill="#C7626A" transform="translate(453,209)"/>
<path d="M0 0 C2.79872437 2.52788007 4.45773019 4.20411134 5 8 C4.01 8.495 4.01 8.495 3 9 C3 8.01 3 7.02 3 6 C2.34 6 1.68 6 1 6 C0.67 4.02 0.34 2.04 0 0 Z " fill="#CB6F78" transform="translate(448,194)"/>
<path d="M0 0 C-0.33 0.99 -0.66 1.98 -1 3 C-2.65 3.33 -4.3 3.66 -6 4 C-6 3.01 -6 2.02 -6 1 C-3 0 -3 0 0 0 Z " fill="#C46975" transform="translate(204,174)"/>
<path d="M0 0 C0.99 0.33 1.98 0.66 3 1 C1.35 2.65 -0.3 4.3 -2 6 C-2.33 4.68 -2.66 3.36 -3 2 C-2.01 1.34 -1.02 0.68 0 0 Z " fill="#BB3B49" transform="translate(95,168)"/>
<path d="M0 0 C0.99 0.33 1.98 0.66 3 1 C3 1.66 3 2.32 3 3 C3.66 3.33 4.32 3.66 5 4 C4.67 5.32 4.34 6.64 4 8 C0 1.125 0 1.125 0 0 Z " fill="#C9656F" transform="translate(396,160)"/>
<path d="M0 0 C0.66 0.33 1.32 0.66 2 1 C1.34 2.32 0.68 3.64 0 5 C-1.98 5 -3.96 5 -6 5 C-5.195625 4.360625 -4.39125 3.72125 -3.5625 3.0625 C-1.7249496 1.59396498 -1.7249496 1.59396498 0 0 Z " fill="#CC5D66" transform="translate(343,117)"/>
</svg>
